<svg xmlns="http://www.w3.org/2000/svg" viewBox="0 0 16 16" fill="none"><path fill="currentColor" d="M10.2998 0.900391C10.8498 0.900391 11.2986 0.900005 11.6621 0.929688C12.0327 0.959968 12.3681 1.02432 12.6807 1.18359C13.1696 1.43282 13.5672 1.83036 13.8164 2.31934C13.9757 2.63193 14.04 2.96728 14.0703 3.33789C14.1 3.70144 14.0996 4.1502 14.0996 4.7002V11.2998C14.0996 11.8498 14.1 12.2986 14.0703 12.6621C14.04 13.0327 13.9757 13.3681 13.8164 13.6807C13.5672 14.1696 13.1696 14.5672 12.6807 14.8164C12.3681 14.9757 12.0327 15.04 11.6621 15.0703C11.2986 15.1 10.8498 15.0996 10.2998 15.0996H3.33301C2.54166 15.0994 1.90057 14.4583 1.90039 13.667V13.5C1.90039 10.9595 3.95949 8.90039 6.5 8.90039C6.83137 8.90039 7.09961 9.16863 7.09961 9.5V10.5859C7.09973 10.9422 7.53126 11.1201 7.7832 10.8682L10.3682 8.2832C10.5244 8.12699 10.5244 7.87301 10.3682 7.7168L7.7832 5.13184C7.53125 4.87989 7.09973 5.0578 7.09961 5.41406V6.5C7.09961 6.83137 6.83137 7.09961 6.5 7.09961C3.95949 7.09961 1.90039 5.04051 1.90039 2.5V2.33301C1.90057 1.54166 2.54166 0.900567 3.33301 0.900391H10.2998Z"/></svg>