<svg xmlns="http://www.w3.org/2000/svg" viewBox="0 0 16 16" fill="none"><path fill="currentColor" d="M12.8173 6.40722C13.1911 6.41919 13.534 6.45259 13.8495 6.59765C14.2285 6.77225 14.5493 7.05643 14.7538 7.41894C14.891 7.66235 14.9431 7.91863 14.9667 8.1787C14.9894 8.42976 14.9881 8.73608 14.9881 9.09081V10.7578C14.9881 11.1208 14.9947 11.4316 14.9149 11.7021L14.8729 11.8252C14.7667 12.1075 14.5921 12.3591 14.3671 12.5625C14.1102 12.7945 13.7958 12.9572 13.4579 13.0391L13.246 13.0762C13.1866 13.0832 13.1248 13.0863 13.0604 13.0898V13.5176C13.0604 13.6201 13.0609 13.7431 13.0506 13.8457C13.0411 13.9405 13.0134 14.1456 12.8573 14.3223C12.7742 14.4161 12.6727 14.4886 12.5633 14.5361C12.454 14.5836 12.3364 14.6064 12.2196 14.6064C12.0089 14.6064 11.8455 14.5173 11.7626 14.4678C11.6736 14.4147 11.5733 14.3413 11.4823 14.2754L10.3329 13.4443C10.081 13.2623 10.0163 13.2185 9.95104 13.1885L9.94909 13.1875C9.88028 13.1556 9.80531 13.1321 9.72741 13.1172C9.64907 13.103 9.56112 13.1006 9.23913 13.1006H8.02624C7.73928 13.1006 7.50876 13.101 7.31432 13.0781C7.08772 13.0514 6.91209 12.9946 6.71374 12.9033C6.33455 12.7287 6.01491 12.4437 5.81041 12.081C5.62243 11.7473 5.59026 11.3785 5.57995 10.999C5.57115 10.668 5.83286 10.3919 6.16393 10.3828C6.49497 10.374 6.7701 10.6357 6.77916 10.9668C6.78662 11.2411 6.80841 11.3686 6.8319 11.4385L6.85534 11.4922C6.92801 11.6211 7.05104 11.7366 7.21569 11.8125C7.32667 11.8636 7.3798 11.8778 7.45495 11.8867C7.56228 11.8993 7.70785 11.9004 8.02624 11.9004H9.23913C9.51817 11.9004 9.73211 11.8976 9.94127 11.9355L9.94518 11.9365C10.1198 11.9693 10.2901 12.0233 10.451 12.0976C10.6472 12.1878 10.8189 12.3147 11.036 12.4717L11.8602 13.0674V12.5C11.8604 12.1688 12.1296 11.9004 12.4608 11.9004C12.9435 11.9004 13.0791 11.8956 13.1766 11.8721C13.3282 11.8351 13.4617 11.7647 13.5633 11.6728C13.6647 11.5813 13.7306 11.4727 13.7635 11.3623C13.782 11.2997 13.7889 11.2046 13.7889 10.7578V9.09081C13.7889 8.71433 13.788 8.47163 13.7714 8.2871C13.7555 8.11172 13.7282 8.0449 13.7079 8.00878C13.6352 7.87991 13.5132 7.76338 13.3485 7.68749C13.2651 7.64913 13.1286 7.61763 12.7792 7.60644C12.4481 7.59571 12.1885 7.31842 12.1991 6.9873C12.2099 6.6565 12.4864 6.39692 12.8173 6.40722Z"/></svg>