<svg xmlns="http://www.w3.org/2000/svg" viewBox="0 0 16 16" fill="none"><path fill="currentColor" d="M8 1C11.5576 1 14.4412 3.88389 14.4414 7.44141C14.4414 7.55252 14.4392 7.6637 14.4336 7.77344L14.4316 7.86719C14.3264 9.99017 13.4369 12.0055 11.9268 13.5156C10.9993 14.4431 9.88056 15.1347 8.66406 15.5557C8.3324 15.6704 8.00003 15.4134 8 15.0625V14.4199C7.99983 14.1236 7.75825 13.8857 7.46289 13.8613C4.15654 13.5884 1.55859 10.8182 1.55859 7.44141C1.55876 3.88389 4.44244 1 8 1ZM6.48145 9.64355C6.2852 9.37843 5.91202 9.32058 5.64551 9.51562C5.37812 9.71134 5.31993 10.0871 5.51562 10.3545L6 10C5.51583 10.3544 5.51645 10.3553 5.5166 10.3555L5.51758 10.3564L5.51855 10.3584C5.51963 10.3599 5.52105 10.3614 5.52246 10.3633C5.52551 10.3673 5.52962 10.373 5.53418 10.3789C5.54323 10.3906 5.55537 10.4057 5.57031 10.4238C5.6006 10.4606 5.64288 10.5107 5.69727 10.5684C5.80557 10.6832 5.96413 10.8337 6.16992 10.9844C6.58015 11.2847 7.20193 11.5996 8 11.5996C8.79807 11.5996 9.41985 11.2847 9.83008 10.9844C10.0359 10.8337 10.1944 10.6832 10.3027 10.5684C10.3571 10.5107 10.3994 10.4606 10.4297 10.4238C10.4446 10.4057 10.4568 10.3906 10.4658 10.3789C10.4704 10.373 10.4745 10.3673 10.4775 10.3633C10.479 10.3614 10.4804 10.3599 10.4814 10.3584L10.4834 10.3545C10.4794 10.3513 10.4372 10.32 10 10L10.4834 10.3545C10.6791 10.0871 10.6219 9.71134 10.3545 9.51562C10.1204 9.34427 9.80329 9.36773 9.59668 9.55566L9.51758 9.64355C9.51535 9.64643 9.51026 9.6532 9.50293 9.66211C9.48828 9.67992 9.46351 9.70826 9.42969 9.74414C9.36115 9.8168 9.25674 9.91631 9.12109 10.0156C8.84834 10.2153 8.46998 10.4004 8 10.4004C7.53002 10.4004 7.15166 10.2153 6.87891 10.0156C6.74326 9.91631 6.63885 9.8168 6.57031 9.74414C6.53649 9.70826 6.51172 9.67992 6.49707 9.66211C6.48974 9.6532 6.48562 9.64643 6.4834 9.64355H6.48145Z"/></svg>