<svg xmlns="http://www.w3.org/2000/svg" viewBox="0 0 16 16" fill="none"><path fill="currentColor" d="M3.82812 8.6875C4.11686 8.68715 4.35112 8.92128 4.35156 9.20996V11.0459C4.35173 10.7568 4.58525 10.523 4.87402 10.5225C5.16293 10.5226 5.39735 10.7569 5.39746 11.0459V11.3076C5.39755 11.0186 5.63217 10.7842 5.9209 10.7842C6.20961 10.7844 6.44327 11.0188 6.44336 11.3076V11.832C6.44364 11.5433 6.67808 11.3096 6.9668 11.3096C7.25557 11.3096 7.48982 11.5434 7.49023 11.832V14.0508C7.49023 15.1408 6.48763 15.7 5.39746 15.7002C4.28428 15.6999 3.39438 15.4599 2.81543 14.5088C2.44444 13.8998 2.05838 13.4093 1.62793 12.9932C1.47962 12.8447 1.30148 12.681 1.0791 12.5029C0.990159 12.4138 0.945288 12.3244 0.945312 12.2207C0.945125 11.9217 1.2122 11.7896 1.49414 11.8193C1.74644 11.8489 2.14712 12.1015 2.63672 12.5322C2.75537 12.6362 2.91891 12.6662 3.06738 12.5918C3.21573 12.5175 3.30464 12.3837 3.30469 12.2207V9.20996C3.30495 8.92117 3.53937 8.6875 3.82812 8.6875Z"/><path fill="currentColor" d="M13.0996 6.5C13.9393 6.5 14.3598 6.49981 14.6807 6.66309C14.9629 6.8069 15.1931 7.03709 15.3369 7.31934C15.5002 7.64015 15.5 8.06068 15.5 8.90039V9.09961C15.5 9.93932 15.5002 10.3598 15.3369 10.6807C15.1931 10.9629 14.9629 11.1931 14.6807 11.3369C14.3598 11.5002 13.9393 11.5 13.0996 11.5H10.9004C10.0607 11.5 9.64015 11.5002 9.31934 11.3369C9.03709 11.1931 8.8069 10.9629 8.66309 10.6807C8.49981 10.3598 8.5 9.93932 8.5 9.09961V8.90039C8.5 8.06068 8.49981 7.64015 8.66309 7.31934C8.8069 7.03709 9.03709 6.8069 9.31934 6.66309C9.64015 6.49981 10.0607 6.5 10.9004 6.5H13.0996Z"/><path fill="currentColor" d="M5.09961 6.5C5.939 6.5 6.35991 6.49984 6.68066 6.66309C6.96273 6.80691 7.19317 7.03722 7.33691 7.31934C7.50009 7.64013 7.5 8.06085 7.5 8.90039V9.09961C7.5 9.20608 7.49979 9.30579 7.49902 9.39941C7.49644 9.71471 7.23718 9.96191 6.92188 9.96191C6.57742 9.96183 6.29873 9.66869 6.2998 9.32422V8.90039C6.2998 8.46069 6.29871 8.20261 6.2832 8.0127C6.2809 7.98454 6.27886 7.96057 6.27637 7.94043C6.26941 7.88427 6.25091 7.82815 6.21094 7.78809C6.17094 7.74805 6.1148 7.73033 6.05859 7.72363C6.0387 7.72128 6.01479 7.71905 5.9873 7.7168C5.79746 7.7013 5.53904 7.7002 5.09961 7.7002H2.90039C2.46104 7.7002 2.20256 7.70133 2.0127 7.7168C1.98503 7.71906 1.9614 7.72129 1.94141 7.72363C1.88504 7.73026 1.82822 7.74798 1.78809 7.78809C1.74816 7.82809 1.73024 7.8843 1.72363 7.94043C1.72126 7.96058 1.7191 7.98456 1.7168 8.0127C1.70129 8.20261 1.7002 8.46066 1.7002 8.90039V9.32422C1.70109 9.66888 1.42184 9.96191 1.07715 9.96191C0.761744 9.96175 0.503164 9.71484 0.500977 9.39941C0.500335 9.30581 0.5 9.20606 0.5 9.09961V8.90039C0.5 8.06068 0.499809 7.64015 0.663086 7.31934C0.806903 7.03718 1.03716 6.80686 1.31934 6.66309C1.55985 6.54081 1.85667 6.51058 2.34375 6.50293L2.90039 6.5H5.09961Z"/><path fill="currentColor" d="M5.09961 0.5C5.93932 0.5 6.35985 0.499809 6.68066 0.663086C6.96291 0.806896 7.1931 1.03709 7.33691 1.31934C7.50019 1.64015 7.5 2.06068 7.5 2.90039V3.09961C7.5 3.93932 7.50019 4.35985 7.33691 4.68066C7.1931 4.96291 6.96291 5.1931 6.68066 5.33691C6.35985 5.50019 5.93932 5.5 5.09961 5.5H2.90039C2.06068 5.5 1.64015 5.50019 1.31934 5.33691C1.03709 5.1931 0.806896 4.96291 0.663086 4.68066C0.499809 4.35985 0.5 3.93932 0.5 3.09961V2.90039C0.5 2.06068 0.499809 1.64015 0.663086 1.31934C0.806896 1.03709 1.03709 0.806896 1.31934 0.663086C1.64015 0.499809 2.06068 0.5 2.90039 0.5H5.09961Z"/><path fill="currentColor" d="M13.0996 0.5C13.9393 0.5 14.3598 0.499809 14.6807 0.663086C14.9629 0.806896 15.1931 1.03709 15.3369 1.31934C15.5002 1.64015 15.5 2.06068 15.5 2.90039V3.09961C15.5 3.93932 15.5002 4.35985 15.3369 4.68066C15.1931 4.96291 14.9629 5.1931 14.6807 5.33691C14.3598 5.50019 13.9393 5.5 13.0996 5.5H10.9004C10.0607 5.5 9.64015 5.50019 9.31934 5.33691C9.03709 5.1931 8.8069 4.96291 8.66309 4.68066C8.49981 4.35985 8.5 3.93932 8.5 3.09961V2.90039C8.5 2.06068 8.49981 1.64015 8.66309 1.31934C8.8069 1.03709 9.03709 0.806896 9.31934 0.663086C9.64015 0.499809 10.0607 0.5 10.9004 0.5H13.0996Z"/></svg>